<svg id="Capa_1" enable-background="new 0 0 512 512" height="512" viewBox="0 0 512 512" width="512" xmlns="http://www.w3.org/2000/svg"><path d="m406 217.666c-13.571 0-26.553 2.567-38.491 7.235l-29.256-61.754v-50.813h52.5c12.406 0 22.5-10.093 22.5-22.5 0-4.142-3.357-7.5-7.5-7.5s-7.5 3.358-7.5 7.5c0 4.136-3.364 7.5-7.5 7.5h-60c-4.143 0-7.5 3.358-7.5 7.5v56.367l-65.376 51.65c-3.955 3.125-8.908 4.845-13.948 4.845h-29.833l-26.565-56.073c-1.774-3.744-6.246-5.34-9.989-3.567s-5.34 6.246-3.567 9.989l70.173 148.122h-32.416c-3.858-54.965-49.803-98.507-105.732-98.507-58.448 0-106 47.551-106 106s47.552 106 106 106c46.322 0 86.908-29.624 100.992-73.716 1.26-3.946-.917-8.166-4.862-9.427-3.947-1.259-8.166.917-9.427 4.862-12.09 37.85-46.934 63.28-86.703 63.28-50.178 0-91-40.822-91-91s40.822-91 91-91c47.654 0 86.866 36.821 90.689 83.506h-15.063c-3.779-38.399-36.251-68.5-75.627-68.5-41.906 0-76 34.093-76 76s34.094 76 76 76c39.375 0 71.847-30.101 75.627-68.5h74.374c2.905 0 5.549-1.678 6.786-4.306l67.989-144.461 23.189 48.948c-32.188 18.216-53.964 52.77-53.964 92.32 0 58.449 47.552 106 106 106s106-47.551 106-106-47.552-106-106-106zm-300 167c-33.636 0-61-27.364-61-61s27.364-61 61-61c31.095 0 56.812 23.392 60.522 53.5h-60.522c-4.143 0-7.5 3.358-7.5 7.5s3.357 7.5 7.5 7.5h60.522c-3.71 30.108-29.427 53.5-60.522 53.5zm149.978-78.566-34.776-73.405h22.726c8.399 0 16.655-2.868 23.247-8.075l43.221-34.146zm150.022 108.566c-50.178 0-91-40.822-91-91 0-33.574 18.278-62.956 45.403-78.727l6.449 13.612c-22.064 13.315-36.852 37.519-36.852 65.115 0 41.907 34.094 76 76 76s76-34.093 76-76-34.094-76-76-76c-8.979 0-17.595 1.576-25.599 4.448l-6.45-13.615c9.973-3.765 20.773-5.833 32.049-5.833 50.178 0 91 40.822 91 91s-40.822 91-91 91zm6.778-94.211-25.913-54.698c6.023-1.995 12.452-3.091 19.135-3.091 33.636 0 61 27.364 61 61s-27.364 61-61 61-61-27.364-61-61c0-21.617 11.313-40.629 28.318-51.467l25.904 54.677c1.282 2.707 3.976 4.291 6.783 4.291 1.076 0 2.169-.233 3.206-.724 3.743-1.773 5.34-6.245 3.567-9.988z"/><path d="m139.804 142.333h88.351c4.143 0 7.5-3.358 7.5-7.5v-15c0-12.407-10.094-22.5-22.5-22.5h-73.351c-12.406 0-22.5 10.093-22.5 22.5s10.093 22.5 22.5 22.5zm0-30h73.351c4.136 0 7.5 3.364 7.5 7.5v7.5h-80.851c-4.136 0-7.5-3.364-7.5-7.5s3.364-7.5 7.5-7.5z"/></svg>