<svg height="512pt" viewBox="-32 0 512 512.00088" width="512pt" xmlns="http://www.w3.org/2000/svg"><path d="m430.695312 115.003906c9.648438 0 17.5-7.851562 17.5-17.5v-65.003906c0-17.917969-14.582031-32.5-32.5-32.5-17.921874 0-32.5 14.582031-32.5 32.5v65.003906c0 9.648438 7.851563 17.5 17.5 17.5h7.5v339.496094h-17.5c-4.144531 0-7.5 3.355469-7.5 7.5 0 4.140625 3.355469 7.5 7.5 7.5h17.5v35c0 4.140625 3.355469 7.5 7.5 7.5 4.140626 0 7.5-3.359375 7.5-7.5v-35h17.5c4.140626 0 7.5-3.359375 7.5-7.5 0-4.144531-3.359374-7.5-7.5-7.5h-17.5v-339.496094zm-32.5-17.5v-65.003906c0-9.648438 7.851563-17.5 17.5-17.5 9.648438 0 17.5 7.851562 17.5 17.5v65.003906c0 1.375-1.121093 2.5-2.5 2.5h-30c-1.378906 0-2.5-1.125-2.5-2.5zm0 0"/><path d="m32.5 0c-17.917969 0-32.5 14.582031-32.5 32.5v65.003906c0 9.648438 7.851562 17.5 17.5 17.5h7.5v339.496094h-17.5c-4.140625 0-7.5 3.355469-7.5 7.5 0 4.140625 3.359375 7.5 7.5 7.5h17.5v35c0 4.140625 3.359375 7.5 7.5 7.5s7.5-3.359375 7.5-7.5v-35h17.5c4.140625 0 7.5-3.359375 7.5-7.5 0-4.144531-3.359375-7.5-7.5-7.5h-17.5v-339.496094h7.5c9.648438 0 17.5-7.851562 17.5-17.5v-65.003906c0-17.917969-14.578125-32.5-32.5-32.5zm17.5 97.503906c0 1.375-1.121094 2.5-2.5 2.5h-30c-1.378906 0-2.5-1.125-2.5-2.5v-65.003906c0-9.648438 7.851562-17.5 17.5-17.5s17.5 7.851562 17.5 17.5zm0 0"/><path d="m214.421875 65.699219c.386719-2.695313.582031-5.457031.582031-8.199219 0-15.929688-6.367187-30.742188-17.925781-41.714844-11.554687-10.960937-26.707031-16.542968-42.660156-15.7031248-14.222657.7460938-27.621094 6.7734378-37.726563 16.9726568-10.105468 10.191406-16.011718 23.644531-16.632812 37.875-.160156 3.640624.019531 7.300781.539062 10.871093 5.207032 35.910157 7.738282 74.644531 7.738282 118.414063v147.382812c0 5.761719-.054688 11.566406-.160157 17.253906-.078125 4.140626 3.21875 7.5625 7.359375 7.636719 4.167969.078125 7.558594-3.214843 7.636719-7.359375.109375-5.78125.164063-11.675781.164063-17.53125v-16.816406l68.550781 34.449219c.707031 35.875 3.234375 68.488281 7.675781 99.121093.382812 2.644532.515625 5.355469.398438 8.0625-.945313 21.59375-18.585938 39.394532-40.164063 40.523438-11.808594.617188-23.007813-3.503906-31.546875-11.605469-8.542969-8.109375-13.25-19.058593-13.25-30.832031 0-2.035156.144531-4.078125.429688-6.070312 3.257812-22.746094 5.53125-46.605469 6.765624-70.917969.210938-4.136719-2.972656-7.660157-7.109374-7.867188-4.132813-.230469-7.660157 2.972657-7.871094 7.109375-1.207032 23.855469-3.441406 47.253906-6.632813 69.550782-.386719 2.695312-.582031 5.453124-.582031 8.195312 0 15.929688 6.367188 30.742188 17.925781 41.710938 10.796875 10.246093 24.730469 15.789062 39.535157 15.789062 1.035156 0 2.078124-.027344 3.121093-.082031 14.222657-.742188 27.621094-6.769531 37.730469-16.96875 10.101562-10.195313 16.011719-23.648438 16.632812-37.878907.160157-3.640624-.019531-7.296874-.539062-10.871093-4.535156-31.285157-7.039062-64.71875-7.609375-101.753907 0-.0625 0-.121093-.003906-.183593-.082031-5.414063-.125-10.902344-.125-16.476563v-147.382812c0-40.175782 2.609375-78.765625 7.753906-114.703125zm-22.753906 144.78125-68.363281-34.355469c-.058594-8.195312-.210938-16.21875-.449219-24.085938l68.8125 34.578126zm-68.335938-17.550781 68.335938 34.335937v34.414063l-68.335938-34.335938zm-8.289062-137.34375c.945312-21.59375 18.585937-39.394532 40.160156-40.523438 11.8125-.621094 23.011719 3.503906 31.550781 11.605469 8.542969 8.109375 13.25 19.058593 13.25 30.832031 0 2.035156-.144531 4.078125-.429687 6.074219-4.792969 33.476562-7.417969 69.1875-7.839844 106.285156l-69.5625-34.953125c-1.234375-25.160156-3.464844-48.742188-6.730469-71.257812-.382812-2.644532-.519531-5.355469-.398437-8.0625zm8.289062 242.40625v-53.863282l68.335938 34.339844v49.316406c0 1.53125.011719 3.039063.015625 4.554688zm0 0"/><path d="m327.859375 106.871094c-.347656 4.125 2.714844 7.753906 6.84375 8.105468 4.132813.351563 7.753906-2.714843 8.105469-6.84375 1.214844-14.363281 2.832031-28.640624 4.804687-42.433593.386719-2.695313.582031-5.453125.582031-8.195313 0-15.933594-6.367187-30.746094-17.925781-41.714844-11.554687-10.964843-26.710937-16.546874-42.65625-15.7070308-14.222656.7460938-27.625 6.7734378-37.730469 16.9726568-10.105468 10.195312-16.011718 23.644531-16.636718 37.875-.15625 3.640624.023437 7.296874.542968 10.871093 5.203126 35.910157 7.734376 74.640625 7.734376 118.417969v147.378906c0 40.179688-2.605469 78.769532-7.75 114.707032-.386719 2.695312-.582032 5.453124-.582032 8.195312 0 15.929688 6.367188 30.742188 17.925782 41.710938 10.796874 10.246093 24.730468 15.789062 39.535156 15.789062 1.035156 0 2.078125-.027344 3.121094-.082031 14.222656-.742188 27.625-6.769531 37.730468-16.96875 10.101563-10.195313 16.011719-23.648438 16.632813-37.878907.160156-3.640624-.019531-7.296874-.539063-10.871093-4.535156-31.289063-7.039062-64.726563-7.609375-101.769531 0-.050782 0-.105469-.003906-.160157-.082031-5.414062-.125-10.90625-.125-16.484375v-147.382812c0-15.097656.367187-30.078125 1.089844-44.523438.207031-4.140625-2.980469-7.660156-7.117188-7.867187-4.144531-.207031-7.65625 2.980469-7.863281 7.117187-.566406 11.320313-.910156 22.964844-1.042969 34.730469l-69.5625-34.953125c-1.234375-25.160156-3.464843-48.742188-6.726562-71.253906-.386719-2.648438-.519531-5.363282-.402344-8.066406.949219-21.59375 18.589844-39.394532 40.164063-40.523438 11.808593-.621094 23.007812 3.503906 31.546874 11.605469 8.542969 8.109375 13.25 19.058593 13.25 30.835937 0 2.03125-.144531 4.074219-.429687 6.070313-2.015625 14.074219-3.664063 28.644531-4.90625 43.296875zm-3 120.394531v34.414063l-68.332031-34.335938v-34.414062zm-68.335937 16.863281 68.335937 34.339844v49.316406c0 1.53125.011719 3.039063.019531 4.554688l-68.355468-34.34375zm76.628906 212.285156c-.945313 21.59375-18.585938 39.394532-40.164063 40.523438-11.800781.625-23.007812-3.503906-31.546875-11.605469-8.542968-8.109375-13.25-19.058593-13.25-30.835937 0-2.03125.144532-4.074219.429688-6.070313 5.246094-36.636719 7.90625-75.941406 7.90625-116.828125v-16.816406l68.550781 34.445312c.707031 35.878907 3.234375 68.488282 7.675781 99.125.382813 2.644532.515625 5.355469.398438 8.0625zm-8.292969-269.796874v23.863281l-68.363281-34.355469c-.058594-8.195312-.210938-16.21875-.449219-24.085938zm0 0"/></svg>